<svg xmlns:svg="http://www.w3.org/2000/svg" xmlns="http://www.w3.org/2000/svg" version="1.1" width="24" height="24" viewBox="0" xml:space="preserve"><path d="m22 21h-1c0 0-1 0-1-1V17.5C20 17.2 19.8 17 19.5 17 19.2 17 19 17.2 19 17.5l0 4.3C19 22.4 17 24 12.5 24 8 24 6 22.4 6 21.8L6 17.5C6 17.2 5.8 17 5.5 17 5.2 17 5 17.2 5 17.5v2.5c0 1-1 1-1 1H3c0 0-1 0-1-1V15.8c0-2.9 2.9-5.4 6.9-6.3 0 0 1.2 1.1 3.6 1.1 2.3 0 3.6-1.1 3.6-1.1 4 0.9 6.9 3.4 6.9 6.3v4.2c0 1-1 1-1 1zM12.5 9c-2.5 0-4.5-2-4.5-4.5 0-2.5 2-4.5 4.5-4.5 2.5 0 4.5 2 4.5 4.5 0 2.5-2 4.5-4.5 4.5z" fill="#247de1"/></svg>